<?xml version="1.0" standalone="yes"?>
<svg xmlns="http://www.w3.org/2000/svg" width="800" height="600">
<path style="fill:#03b5a5; stroke:none;" d="M412 153C416.743 155.901 422.768 157.133 428 159.053C435.582 161.836 442.991 165.416 450 169.427C464.37 177.652 474.917 189.408 488 199C487.178 197.515 485.848 195.793 485.997 193.975C486.23 191.133 489.153 188.875 491.002 187C495.966 181.966 501.001 176.999 506 172L550 128C558.011 119.989 567.47 112.27 574 103L495 103L474 103C470.481 103 466.249 102.403 463 104.028C457.993 106.531 453.907 112.093 450 116C442.688 123.312 435.231 130.507 428.09 137.985C423.127 143.182 418.173 149.272 412 153M232 146L232 392L232 455L232 471C232.005 473.199 231.534 476.411 233.028 478.258C236.08 482.03 247.623 480 252 480L306 480L306 348C324.607 356.802 341.612 370.913 359 381.947C398.219 406.834 436.947 432.538 476 457.692C488.014 465.43 500.07 473.138 512 481.003C518.602 485.355 525.5 491.511 533 494.182C537.837 495.905 543.937 495 549 495L579 495L684 495C679.128 489.685 671.984 486.315 666 482.333C653.144 473.779 639.982 465.67 627 457.308C585.603 430.644 544.111 404.107 503 377.003C492.425 370.031 481.736 363.147 471 356.424C464.262 352.205 456.098 348.169 451 342C443.808 341.504 435.962 334.148 430 330.308L399 310.308C392.833 306.336 386.931 301.537 380 299L380 297C386.684 293.817 391.779 286.221 397 281L432 246C419.026 227.582 392.303 215.531 370 215C364.712 214.874 357.98 212.538 353 215.028C346.899 218.078 341.773 225.227 337 230L306 261L306 146L232 146z"/>
<path style="fill:#173661; stroke:none;" d="M306 146L306 214C351.519 214 401.345 208.745 433.535 248C448.54 266.298 454 289.822 454 313C454 319.407 453.683 325.657 452.704 332C452.186 335.354 450.305 339.459 451.618 342.816C453.801 348.395 464.137 352.786 469 355.808C484.178 365.238 498.86 377.365 515 385C540.067 331.412 534.06 261.044 499.572 213C483.64 190.806 461.757 173.644 437 162.309C395.697 143.397 350.234 146 306 146z"/>
<path style="fill:#173661; stroke:none;" d="M306 411L306 479C331.453 479 357.72 480.828 383 477.714C411.293 474.228 438.206 464.745 462 449C457.329 444.526 451.38 441.544 446 437.997C435.379 430.995 424.807 423.906 414 417.192C408.333 413.671 401.602 406.971 395 405.603C391.647 404.909 388.16 406.681 385 407.572C379.516 409.117 373.675 410.281 368 410.83C347.708 412.794 326.391 411 306 411z"/>
</svg>