<!DOCTYPE svg PUBLIC "-//W3C//DTD SVG 20010904//EN" "http://www.w3.org/TR/2001/REC-SVG-20010904/DTD/svg10.dtd">
<svg version="1.0" xmlns="http://www.w3.org/2000/svg" width="431px" height="353px" viewBox="0 0 4310 3530" preserveAspectRatio="xMidYMid meet">
<g id="layer101" fill="#D7A449" stroke="none">
 <path d="M40 1770 l0 -1730 70 0 70 0 0 1730 0 1730 -70 0 -70 0 0 -1730z"/>
 <path d="M560 2693 c0 -443 2 -804 4 -802 2 2 205 290 451 639 247 349 501 710 567 803 l118 167 -83 0 -82 0 -415 -589 -415 -589 -3 129 -3 129 335 460 335 460 -82 0 -83 0 -232 -320 c-128 -175 -242 -329 -252 -342 -19 -23 -19 -22 -20 105 l0 128 143 202 c79 111 146 208 151 215 5 9 -11 12 -73 12 l-80 0 -68 -96 -68 -95 -3 95 -3 96 -69 0 -70 0 0 -807z"/>
 <path d="M1652 2634 l-631 -866 390 -486 389 -487 0 -352 c0 -194 -3 -353 -7 -352 -5 0 -49 50 -100 112 -50 62 -326 397 -612 745 l-521 633 0 -770 0 -771 70 0 70 0 0 101 0 102 83 -101 82 -101 88 -1 89 0 -44 52 c-23 28 -100 122 -170 207 l-128 155 0 145 c0 140 1 145 18 124 9 -12 136 -170 282 -352 l265 -331 83 0 c64 0 81 3 76 12 -5 7 -169 214 -366 461 l-359 447 3 118 3 117 374 -455 c206 -250 420 -510 475 -577 l101 -123 138 0 137 0 0 89 0 89 611 764 c337 419 616 768 621 775 6 8 -102 164 -346 500 l-356 488 0 378 0 377 -89 0 -89 0 -630 -866z m482 -1946 c-103 -128 -190 -235 -195 -236 -5 -2 -9 494 -9 1167 l0 1171 152 208 c83 114 170 232 192 263 l41 57 3 -1199 2 -1199 -186 -232z m-334 1775 l-1 -138 -199 -274 c-110 -150 -200 -277 -200 -282 0 -5 90 -122 200 -259 l201 -250 -3 -122 -3 -122 -303 378 -303 377 301 415 c166 228 304 414 306 414 2 0 4 -62 4 -137z m932 -318 c140 -192 258 -356 262 -363 5 -8 -85 -128 -261 -348 l-268 -336 -3 120 -3 120 171 212 c93 117 170 215 170 219 0 3 -77 111 -170 238 l-170 233 0 137 c0 81 4 133 9 128 5 -6 123 -167 263 -360z m-932 -355 c0 -165 -3 -300 -7 -300 -10 1 -228 274 -226 284 2 9 224 316 229 316 2 0 4 -135 4 -300z m754 94 c43 -58 75 -111 73 -117 -4 -11 -136 -179 -158 -201 -5 -6 -9 76 -9 213 0 123 4 220 9 217 4 -3 43 -53 85 -112z"/>
 <path d="M3007 2778 c290 -398 572 -785 627 -862 56 -76 100 -143 98 -148 -1 -5 -310 -393 -687 -863 -377 -470 -685 -857 -685 -860 0 -3 38 -4 84 -3 l84 3 690 862 689 862 -384 528 c-212 290 -496 680 -631 866 l-246 337 -82 0 -83 0 526 -722z"/>
 <path d="M2872 3468 c231 -307 1228 -1692 1225 -1703 -3 -7 -314 -398 -692 -869 l-685 -856 87 1 88 0 685 857 c376 471 684 864 684 872 0 8 -274 391 -609 850 -334 459 -615 845 -624 857 -14 20 -25 22 -100 23 l-83 0 24 -32z"/>
 </g>
<g id="layer102" fill="#E34234" stroke="none">
 <path d="M300 1770 l0 -1730 65 0 65 0 0 1730 0 1730 -65 0 -65 0 0 -1730z"/>
 <path d="M1897 3488 c-2 -7 -40 -61 -83 -119 -44 -58 -110 -150 -149 -203 -38 -53 -112 -153 -163 -224 -52 -70 -100 -136 -108 -147 -8 -11 -44 -60 -80 -110 -36 -49 -72 -99 -80 -110 -8 -11 -44 -60 -80 -110 -36 -49 -72 -99 -79 -110 -8 -11 -53 -72 -99 -135 -159 -218 -237 -325 -282 -388 l-45 -63 28 -37 c15 -20 55 -70 88 -110 33 -41 69 -86 80 -101 11 -15 47 -60 80 -100 62 -77 99 -123 150 -188 16 -21 43 -54 60 -74 16 -20 50 -62 75 -94 25 -31 61 -76 80 -100 19 -24 55 -69 80 -100 25 -31 61 -76 80 -100 49 -59 61 -74 100 -125 19 -25 48 -61 65 -81 33 -40 44 -54 95 -119 47 -59 80 -96 82 -90 6 20 3 228 -4 218 -4 -7 -8 -8 -8 -3 0 6 -12 24 -26 40 -14 17 -38 46 -53 65 -14 19 -32 41 -39 48 -7 8 -25 30 -40 50 -15 21 -29 39 -32 42 -3 3 -21 25 -40 50 -19 25 -37 47 -40 50 -3 3 -21 25 -40 50 -19 25 -37 47 -40 50 -3 3 -21 25 -40 50 -19 25 -40 51 -48 58 -7 8 -25 30 -40 50 -15 21 -29 39 -32 42 -3 3 -21 25 -40 50 -19 25 -40 51 -48 58 -7 8 -25 30 -40 50 -15 21 -29 39 -32 42 -3 3 -21 25 -40 50 -19 25 -37 47 -40 50 -3 3 -52 63 -108 134 l-103 128 24 32 c13 17 35 47 48 66 13 19 60 84 104 144 110 150 254 347 271 371 8 11 44 61 80 110 36 50 72 99 80 110 8 11 44 61 80 110 36 50 72 99 80 110 8 11 44 61 80 110 36 50 72 99 80 110 38 54 188 258 257 351 l77 104 -89 0 c-62 0 -90 -4 -94 -12z"/>
 <path d="M2460 3131 l0 -110 38 -52 c20 -28 78 -107 127 -175 50 -67 126 -172 170 -233 44 -61 116 -160 160 -220 44 -60 88 -119 97 -132 9 -13 46 -64 82 -114 36 -49 74 -101 84 -114 9 -14 31 -43 47 -65 17 -23 47 -64 68 -93 l38 -52 -108 -133 c-60 -73 -207 -257 -328 -408 -120 -151 -222 -277 -225 -280 -3 -3 -17 -21 -32 -42 -15 -20 -33 -42 -40 -50 -7 -7 -25 -29 -40 -50 -15 -20 -33 -42 -40 -50 -7 -7 -25 -29 -40 -50 -15 -20 -33 -42 -40 -50 -7 -7 -25 -29 -40 -50 -15 -20 -33 -42 -40 -50 -7 -7 -25 -29 -40 -50 -15 -20 -33 -42 -40 -50 -7 -7 -25 -29 -40 -50 -15 -20 -33 -42 -40 -50 -7 -7 -29 -34 -48 -58 -51 -66 -62 -79 -95 -119 -17 -20 -43 -52 -58 -73 -15 -20 -34 -43 -43 -52 -14 -15 -8 -16 74 -16 l90 0 26 34 c14 19 31 40 38 48 7 7 25 29 40 50 15 20 33 42 40 50 7 7 25 29 40 50 15 20 33 42 40 50 7 7 25 29 40 50 15 20 33 42 40 50 7 7 25 29 40 50 15 20 33 42 40 50 7 7 25 29 40 50 15 20 33 42 40 50 7 7 25 29 40 50 15 20 33 42 40 50 7 7 29 34 48 58 40 52 53 67 100 125 19 24 55 69 80 100 25 32 59 74 76 94 16 20 39 48 50 62 10 15 64 82 119 150 55 68 109 135 120 150 11 15 67 85 124 155 57 71 108 134 113 141 7 9 -9 37 -51 95 -34 46 -68 92 -75 103 -8 11 -50 68 -93 127 -43 58 -116 159 -163 224 -47 65 -119 164 -160 220 -41 56 -118 161 -170 233 -107 148 -256 351 -268 366 -4 6 -22 31 -40 57 -18 26 -37 50 -42 53 -6 4 -10 -34 -10 -104z"/>
 <path d="M2132 3060 l-62 -85 -3 -1183 -2 -1184 28 34 c15 18 47 58 70 88 l42 55 -5 1180 -5 1179 -63 -84z"/>
 </g>

</svg>