<!DOCTYPE svg PUBLIC "-//W3C//DTD SVG 20010904//EN" "http://www.w3.org/TR/2001/REC-SVG-20010904/DTD/svg10.dtd">
<svg version="1.0" xmlns="http://www.w3.org/2000/svg" width="1058px" height="1176px" viewBox="0 0 10580 11760" preserveAspectRatio="xMidYMid meet">
<g id="layer101" fill="#e74643" stroke="none">
 <path d="M4457 11282 c-97 -197 -177 -361 -177 -365 0 -3 -65 -137 -145 -298 -79 -160 -142 -295 -140 -300 3 -4 67 -37 143 -74 75 -37 227 -111 337 -165 110 -54 215 -104 233 -111 17 -8 32 -17 32 -21 0 -5 6 -8 12 -8 12 0 72 -29 453 -216 94 -46 176 -84 183 -84 6 0 12 -4 12 -8 0 -5 18 -15 40 -22 22 -7 40 -17 40 -22 0 -4 5 -8 12 -8 15 0 739 -356 888 -437 47 -25 108 -58 135 -73 28 -15 67 -37 88 -48 20 -12 54 -32 75 -43 20 -12 49 -30 64 -40 14 -11 29 -19 32 -19 20 0 355 -237 471 -334 163 -135 400 -379 519 -534 11 -15 23 -29 26 -32 44 -37 330 -462 330 -490 0 -6 3 -10 8 -10 6 0 122 -230 173 -345 28 -62 76 -195 94 -255 7 -25 20 -65 28 -90 24 -69 51 -186 86 -365 18 -90 30 -207 42 -387 18 -283 -14 -652 -82 -955 -5 -24 -14 -64 -20 -90 -73 -328 -201 -679 -367 -1003 -88 -172 -212 -377 -274 -455 -4 -5 -44 -58 -87 -116 -44 -59 -94 -124 -113 -145 -118 -134 -270 -290 -367 -374 -35 -30 -69 -60 -75 -65 -98 -89 -433 -331 -496 -358 -8 -4 -37 -20 -65 -37 -27 -16 -111 -59 -185 -96 -130 -63 -153 -74 -202 -93 -38 -14 -82 -33 -100 -42 -10 -5 -27 -9 -37 -9 -11 0 -23 -4 -26 -10 -3 -5 -15 -10 -26 -10 -10 0 -27 -4 -37 -9 -9 -5 -37 -14 -62 -21 -25 -7 -55 -16 -68 -21 -13 -5 -34 -9 -47 -9 -13 0 -26 -4 -29 -9 -3 -5 -23 -11 -43 -14 -21 -3 -63 -11 -93 -16 -237 -46 -360 -56 -645 -56 -282 1 -408 11 -655 55 -30 5 -73 12 -95 15 -22 4 -49 10 -60 15 -19 8 -30 11 -115 25 -19 4 -44 10 -55 15 -21 9 -58 18 -113 27 -18 3 -35 9 -38 14 -3 5 -16 9 -30 9 -13 0 -32 4 -42 9 -9 5 -37 14 -62 21 -25 7 -53 16 -62 21 -10 5 -27 9 -37 9 -11 0 -23 5 -26 10 -3 6 -15 10 -26 10 -19 0 -28 4 -76 28 -13 7 -30 12 -38 12 -8 0 -24 5 -35 10 -11 6 -29 15 -40 20 -11 5 -27 10 -35 10 -8 0 -23 4 -33 9 -26 14 -111 51 -117 51 -3 0 -27 10 -53 21 -26 12 -63 28 -82 36 -80 34 -272 125 -475 224 -66 33 -126 59 -133 59 -7 0 -12 3 -12 8 0 4 -15 13 -33 21 -32 13 -184 87 -592 286 -115 57 -225 109 -242 116 -18 8 -33 17 -33 21 0 5 -9 8 -20 8 -11 0 -20 5 -20 10 0 6 -5 10 -12 10 -12 0 -107 46 -513 246 -105 52 -196 94 -203 94 -6 0 -12 5 -12 11 0 6 -10 9 -22 7 -23 -3 -69 -83 -145 -253 -17 -38 -110 -230 -206 -425 -246 -499 -308 -631 -302 -640 5 -8 242 -126 720 -360 127 -62 307 -150 400 -196 94 -46 176 -84 183 -84 6 0 12 -3 12 -8 0 -4 15 -13 33 -21 30 -12 76 -34 452 -216 201 -97 490 -234 588 -279 128 -58 173 -78 192 -86 11 -4 43 -18 70 -30 28 -12 60 -26 73 -31 46 -18 68 -28 114 -48 26 -12 55 -21 63 -21 8 0 15 -4 15 -10 0 -5 9 -10 20 -10 11 0 28 -4 38 -9 9 -5 31 -14 47 -21 17 -7 38 -16 47 -21 10 -5 27 -9 37 -9 11 0 22 -4 25 -8 3 -4 28 -14 56 -22 28 -8 53 -18 56 -22 3 -4 14 -8 25 -8 10 0 27 -4 37 -9 9 -5 37 -15 62 -21 25 -7 54 -16 65 -20 11 -4 40 -13 65 -20 25 -7 55 -16 68 -21 13 -5 34 -9 47 -9 13 0 27 -4 30 -10 3 -5 21 -10 40 -10 19 0 37 -4 40 -10 3 -5 21 -10 40 -10 19 0 36 -4 39 -9 3 -4 25 -11 48 -15 24 -3 66 -10 93 -16 158 -32 339 -57 590 -82 170 -17 771 -17 930 0 239 25 377 46 550 83 28 6 67 13 88 16 20 3 40 9 43 14 3 5 20 9 39 9 19 0 37 5 40 10 3 6 17 10 30 10 13 0 34 4 47 9 13 5 43 14 68 21 25 7 53 16 62 21 10 5 27 9 37 9 11 0 23 5 26 10 3 6 16 10 29 10 12 0 26 4 31 8 6 4 28 14 50 21 39 12 53 17 108 40 33 13 69 28 100 40 155 60 432 200 608 308 35 22 75 46 88 54 14 8 34 22 45 32 11 9 25 17 30 17 6 0 34 17 61 38 28 21 72 53 100 72 27 19 56 40 65 46 8 7 44 34 80 61 36 26 67 50 70 53 3 3 30 25 60 50 30 25 60 49 66 55 6 5 35 30 64 55 148 125 408 385 540 540 30 36 57 67 60 70 3 3 21 25 40 50 19 25 40 51 47 58 7 7 13 17 13 20 0 4 10 18 23 32 12 14 42 54 66 90 25 36 48 67 51 70 22 19 212 327 276 445 20 38 46 85 57 105 44 76 157 304 157 317 0 7 5 13 10 13 6 0 10 7 10 15 0 8 17 49 38 92 21 43 48 105 61 138 13 33 28 64 33 69 4 6 8 16 8 23 0 7 8 32 19 56 46 103 142 379 174 497 9 30 25 89 37 130 25 90 51 203 83 365 40 200 47 248 77 537 13 125 13 640 0 749 -5 46 -15 127 -20 179 -20 172 -62 399 -110 585 -18 66 -35 136 -39 155 -12 53 -119 369 -141 417 -11 24 -20 46 -20 51 0 4 -16 46 -36 92 -19 47 -44 107 -55 135 -21 50 -209 429 -247 496 -67 120 -273 442 -292 459 -3 3 -17 21 -30 40 -14 19 -35 46 -47 60 -13 14 -23 28 -23 31 0 3 -10 17 -21 30 -12 13 -33 40 -48 59 -14 19 -33 42 -41 50 -8 8 -40 44 -70 80 -69 83 -315 329 -400 400 -35 30 -74 64 -86 75 -32 30 -58 51 -148 119 -45 33 -83 63 -86 66 -3 4 -27 22 -55 41 -27 18 -52 37 -55 40 -3 3 -81 56 -175 118 -93 61 -175 116 -182 121 -7 6 -15 10 -19 10 -3 0 -18 8 -32 19 -15 10 -44 28 -64 40 -21 11 -54 30 -73 41 -19 11 -51 29 -70 40 -19 11 -52 30 -72 41 -21 12 -57 32 -81 45 -23 13 -63 36 -90 50 -49 28 -143 79 -277 150 -44 23 -213 109 -375 189 -343 171 -513 254 -880 428 -52 24 -156 74 -231 111 -75 36 -142 66 -148 66 -6 0 -11 5 -11 10 0 6 -6 10 -12 10 -7 0 -67 26 -133 59 -66 32 -203 100 -305 150 -102 50 -188 91 -191 91 -3 0 -85 -161 -182 -358z"/>
 <path d="M7836 10692 c-3 -5 5 -14 17 -19 68 -32 216 -106 242 -121 17 -9 62 -35 100 -56 162 -91 544 -363 661 -471 6 -5 44 -39 85 -75 96 -83 397 -385 475 -475 128 -147 174 -204 267 -330 141 -189 177 -240 177 -250 0 -3 5 -11 10 -18 21 -24 90 -136 90 -146 0 -5 4 -11 8 -13 24 -9 224 -408 287 -573 15 -38 33 -83 40 -100 31 -74 108 -332 135 -455 7 -30 16 -64 20 -75 5 -11 8 700 7 1580 l-2 1600 -1307 3 c-719 1 -1309 -2 -1312 -6z"/>
 <path d="M1040 8296 c0 -1374 4 -2397 9 -2400 5 -3 18 16 29 42 11 26 52 112 90 192 134 280 275 576 302 635 15 33 64 136 109 228 44 93 81 170 81 171 0 2 38 81 84 177 46 96 101 212 124 259 67 142 139 294 249 525 58 121 118 247 133 280 15 33 63 132 105 220 42 88 90 187 105 220 15 33 139 294 275 580 136 286 269 565 295 620 26 55 72 152 102 215 30 63 86 180 123 260 38 80 73 151 78 158 8 9 -222 12 -1142 12 l-1151 0 0 -2394z"/>
 <path d="M3771 9868 c-65 -134 -157 -322 -204 -418 -46 -96 -132 -272 -190 -390 -57 -118 -131 -271 -165 -340 -33 -69 -120 -249 -194 -400 -75 -151 -152 -311 -173 -355 -21 -44 -103 -210 -182 -370 -79 -159 -143 -295 -143 -302 0 -7 -4 -13 -10 -13 -5 0 -10 -6 -10 -13 0 -8 -42 -99 -93 -203 -139 -281 -238 -483 -310 -634 -35 -74 -127 -263 -205 -420 -77 -157 -162 -332 -190 -390 -27 -58 -116 -239 -196 -402 -80 -164 -146 -299 -146 -302 0 -3 -80 -168 -178 -368 -215 -436 -342 -698 -342 -702 0 -3 115 -60 595 -297 99 -49 186 -89 193 -89 6 0 12 -4 12 -10 0 -5 6 -10 12 -10 7 0 91 -38 185 -85 95 -47 251 -123 346 -170 94 -47 177 -85 184 -85 6 0 13 -6 16 -12 2 -7 7 -11 10 -8 5 5 252 506 325 660 22 47 103 213 180 370 77 157 164 337 195 400 75 158 310 637 418 855 l89 180 -5 -130 c-3 -71 -10 -191 -15 -265 -5 -74 -14 -202 -20 -285 -5 -82 -15 -215 -20 -295 -6 -80 -15 -212 -21 -295 -5 -82 -14 -213 -19 -290 -23 -318 -24 -429 -6 -457 16 -24 206 -128 234 -128 6 0 12 -3 12 -7 0 -9 49 -33 67 -33 7 0 13 -4 13 -10 0 -5 5 -10 12 -10 6 0 120 -53 252 -119 560 -276 653 -321 664 -321 7 0 12 -4 12 -10 0 -5 6 -10 12 -10 7 0 82 -34 165 -75 84 -41 222 -109 306 -150 83 -41 160 -75 170 -75 16 0 17 10 12 113 -8 195 -25 612 -35 907 -11 290 -21 575 -40 1075 -6 154 -15 369 -20 479 -7 142 -6 204 2 219 14 28 42 53 113 107 33 25 62 47 65 50 3 3 32 25 65 50 33 25 62 47 65 50 3 3 21 17 40 30 19 13 37 27 40 30 3 3 21 17 40 30 19 13 37 27 40 30 3 3 19 16 36 30 31 26 42 34 154 116 36 27 67 51 70 54 3 3 32 25 65 50 33 25 62 47 65 50 3 3 32 25 65 50 33 25 62 47 65 50 3 3 21 17 40 30 19 13 37 27 40 30 6 6 56 45 170 131 47 35 87 66 90 69 3 3 21 17 40 30 19 13 41 30 48 37 7 7 48 39 90 70 42 32 79 60 82 63 3 3 21 17 40 30 19 13 37 27 40 30 3 3 21 17 40 30 34 24 59 43 84 65 6 6 38 30 71 55 33 25 62 47 65 50 3 3 21 17 40 30 19 14 42 30 50 37 8 7 44 35 80 63 36 28 72 56 80 63 8 7 31 23 50 37 19 13 37 27 40 30 3 3 21 17 40 30 19 13 41 30 48 37 7 7 48 39 90 70 104 79 122 94 122 110 0 8 -8 17 -17 20 -10 4 -20 9 -23 12 -10 12 -92 51 -106 51 -8 0 -14 5 -14 10 0 6 -9 10 -20 10 -11 0 -20 5 -20 10 0 6 -6 10 -12 10 -12 0 -72 29 -453 216 -94 46 -176 84 -183 84 -6 0 -12 5 -12 10 0 6 -5 10 -12 10 -10 0 -150 67 -593 286 -105 52 -196 94 -203 94 -6 0 -12 5 -12 10 0 6 -5 10 -11 10 -6 0 -85 36 -174 80 -89 44 -170 80 -180 80 -32 0 -106 -66 -405 -360 -59 -58 -185 -179 -280 -270 -95 -91 -217 -208 -271 -261 -54 -53 -171 -166 -260 -250 -89 -85 -209 -200 -267 -257 -57 -57 -107 -101 -109 -98 -3 3 27 69 66 148 39 79 71 149 71 156 0 6 3 12 8 12 4 0 13 15 21 33 21 51 79 172 224 467 74 151 168 345 210 430 41 85 128 265 194 400 66 135 128 263 138 285 10 22 71 148 137 279 65 132 118 245 118 250 -1 10 -67 44 -585 296 -308 150 -545 266 -766 374 -107 53 -198 96 -202 96 -4 0 -61 -109 -126 -242z"/>
 <path d="M10439 3585 c-10 -22 -41 -101 -69 -175 -29 -74 -57 -139 -61 -145 -5 -5 -9 -15 -9 -21 0 -34 -243 -524 -316 -636 -13 -21 -24 -40 -24 -43 0 -14 -221 -355 -284 -437 -12 -15 -34 -44 -49 -65 -27 -38 -149 -191 -190 -241 -66 -79 -118 -134 -282 -297 -174 -175 -200 -199 -315 -295 -29 -25 -58 -50 -64 -55 -10 -9 -105 -80 -261 -196 -27 -20 -75 -52 -105 -71 -30 -19 -91 -58 -135 -85 -44 -28 -102 -63 -130 -79 -27 -15 -79 -44 -115 -63 -94 -53 -250 -128 -390 -188 -19 -9 -48 -21 -65 -28 -16 -8 -50 -21 -75 -30 -25 -9 -54 -21 -65 -25 -71 -29 -255 -92 -320 -111 -16 -4 -46 -12 -65 -18 -65 -18 -195 -53 -230 -61 -75 -17 -147 -33 -190 -40 -243 -43 -277 -48 -435 -60 -77 -6 -149 -15 -160 -20 -11 -5 928 -9 2198 -9 1765 -1 2219 2 2222 12 3 6 4 802 3 1767 -3 1639 -4 1752 -19 1715z"/>
 <path d="M1046 1223 c-3 -4 -6 -255 -6 -560 0 -434 3 -555 13 -558 6 -3 671 -4 1477 -3 1445 3 1464 3 1425 22 -44 20 -42 20 -165 66 -47 18 -94 36 -105 40 -11 4 -36 13 -55 20 -19 7 -46 17 -60 22 -34 14 -55 22 -125 48 -33 12 -71 27 -85 32 -32 14 -48 20 -145 56 -44 17 -129 49 -190 72 -60 23 -146 55 -190 72 -44 16 -89 34 -100 38 -11 4 -58 22 -105 40 -47 18 -94 36 -105 40 -11 4 -47 18 -80 30 -33 12 -71 27 -85 32 -34 14 -54 22 -125 48 -33 12 -69 26 -80 30 -11 4 -47 18 -80 30 -71 26 -104 39 -127 51 -10 5 -23 9 -28 9 -6 0 -30 9 -52 20 -23 11 -50 20 -59 20 -10 0 -21 5 -24 10 -3 6 -13 10 -21 10 -8 0 -33 8 -57 19 -23 10 -58 24 -77 31 -19 7 -46 17 -60 22 -34 14 -55 22 -125 48 -33 12 -69 26 -80 30 -58 24 -163 63 -185 70 -14 4 -48 17 -76 28 -29 12 -55 18 -58 15z"/>
 </g>
<g id="layer102" fill="#64b8a5" stroke="none">
 <path d="M7836 10692 c-2 -4 15 -14 39 -21 24 -7 51 -21 61 -32 9 -10 25 -19 35 -19 22 0 150 -67 165 -86 6 -8 18 -14 25 -14 8 0 37 -16 64 -35 28 -19 61 -40 75 -47 41 -20 220 -140 220 -147 0 -3 13 -12 30 -19 16 -7 44 -27 61 -43 17 -16 35 -29 40 -29 5 0 14 -9 21 -20 7 -11 18 -20 25 -20 6 0 28 -16 49 -35 20 -19 39 -35 43 -35 5 0 28 -21 88 -82 15 -16 33 -28 40 -28 7 0 22 -13 35 -30 12 -16 25 -30 29 -30 9 0 379 -368 379 -377 0 -3 11 -18 25 -35 14 -16 25 -26 25 -22 0 4 9 -1 20 -11 11 -10 20 -22 20 -26 0 -5 23 -32 50 -60 28 -28 50 -57 50 -63 0 -7 18 -31 40 -54 22 -22 40 -45 40 -51 0 -5 7 -11 15 -15 8 -3 15 -10 15 -15 0 -5 14 -23 30 -41 17 -18 30 -36 30 -41 0 -4 11 -20 25 -35 14 -15 25 -33 25 -40 0 -8 4 -14 9 -14 11 0 167 -238 177 -270 4 -14 13 -29 20 -35 16 -11 42 -58 149 -268 41 -82 75 -157 75 -167 0 -10 7 -23 15 -30 8 -7 22 -35 30 -62 8 -28 19 -56 24 -62 15 -18 111 -305 116 -349 3 -22 10 -46 17 -54 6 -7 8 -16 5 -20 -3 -3 0 -21 8 -40 8 -19 14 -37 13 -41 -1 -4 1 -14 5 -22 3 -8 8 -22 10 -30 3 -8 5 692 4 1555 l-2 1570 -1302 3 c-716 1 -1304 -2 -1307 -6z"/>
 <path d="M1040 8295 c0 -1629 3 -2395 10 -2395 6 0 26 33 44 73 33 71 48 103 246 517 56 118 115 242 130 275 15 33 64 136 109 228 44 93 81 170 81 171 0 2 38 81 84 177 46 96 101 212 124 259 67 142 139 294 249 525 58 121 118 247 133 280 15 33 63 132 105 220 42 88 90 187 105 220 15 33 139 294 275 580 136 286 269 565 295 620 26 55 72 152 102 215 30 63 86 180 123 260 38 80 73 151 78 158 8 9 -222 12 -1142 12 l-1151 0 0 -2395z"/>
 <path d="M10433 3568 c-7 -8 -11 -17 -8 -20 5 -5 -34 -117 -54 -155 -5 -10 -13 -29 -18 -43 -22 -55 -35 -86 -49 -113 -8 -16 -14 -34 -14 -41 0 -7 -11 -30 -25 -50 -14 -20 -25 -43 -25 -51 0 -12 -94 -214 -119 -255 -5 -8 -19 -35 -31 -60 -12 -25 -27 -49 -34 -55 -7 -5 -18 -26 -24 -45 -7 -20 -28 -59 -47 -89 -19 -29 -35 -56 -35 -60 0 -5 -13 -27 -30 -49 -16 -23 -30 -44 -30 -48 0 -12 -172 -264 -181 -264 -5 0 -9 -6 -9 -14 0 -7 -11 -24 -24 -38 -12 -14 -26 -33 -29 -42 -4 -9 -11 -16 -17 -16 -5 0 -10 -6 -10 -12 0 -7 -16 -29 -35 -48 -19 -19 -35 -40 -35 -47 0 -8 -7 -16 -15 -19 -8 -4 -15 -12 -15 -20 0 -7 -11 -21 -25 -30 -14 -9 -25 -22 -25 -29 0 -7 -27 -41 -60 -75 -33 -34 -60 -65 -60 -70 0 -4 -25 -29 -55 -55 -30 -25 -55 -51 -55 -56 0 -12 -18 -29 -45 -45 -10 -6 -23 -19 -29 -29 -14 -25 -33 -45 -42 -45 -11 0 -119 -105 -119 -116 0 -5 -13 -15 -27 -22 -15 -7 -37 -26 -48 -42 -12 -16 -36 -37 -55 -46 -19 -9 -33 -20 -32 -26 1 -5 -7 -15 -17 -21 -20 -13 -48 -35 -81 -67 -12 -11 -24 -20 -27 -20 -4 0 -22 -13 -40 -30 -18 -16 -38 -30 -45 -30 -7 0 -13 -4 -13 -9 0 -9 -113 -91 -127 -91 -4 0 -32 -18 -61 -40 -73 -56 -189 -132 -242 -159 -25 -13 -63 -34 -85 -46 -88 -52 -358 -184 -366 -180 -4 3 -11 1 -14 -5 -7 -11 -97 -54 -165 -79 -19 -8 -48 -19 -65 -26 -83 -36 -109 -45 -113 -40 -3 3 -15 -1 -26 -9 -12 -7 -55 -23 -96 -36 -41 -12 -84 -26 -95 -31 -47 -18 -90 -29 -114 -29 -15 0 -36 -7 -48 -15 -12 -8 -34 -17 -50 -19 -15 -2 -40 -8 -55 -14 -15 -6 -45 -13 -65 -16 -21 -3 -38 -5 -38 -7 0 -2 -18 -5 -65 -13 -14 -2 -25 -5 -25 -6 0 -3 -32 -8 -75 -14 -14 -2 -25 -5 -25 -6 0 -1 -12 -4 -27 -6 -16 -2 -40 -6 -55 -8 -16 -2 -30 -5 -33 -6 -5 -3 -30 -7 -95 -14 -16 -2 -34 -4 -40 -6 -17 -5 -57 -9 -120 -12 -33 -2 -60 -7 -60 -13 0 -16 4264 -19 4270 -3 3 7 4 793 3 1747 -2 1382 -6 1731 -15 1719z"/>
 <path d="M1045 1217 c-3 -6 -4 -259 -3 -562 l3 -550 1449 -3 c798 -1 1454 2 1458 6 5 5 -56 32 -134 62 -79 29 -161 60 -183 70 -22 9 -58 23 -80 30 -37 12 -66 24 -165 68 -19 9 -44 17 -56 18 -21 2 -95 33 -147 61 -15 8 -40 16 -56 18 -16 2 -48 13 -72 24 -24 10 -55 23 -69 26 -14 4 -31 12 -38 18 -7 6 -24 12 -37 13 -13 1 -48 15 -77 29 -29 15 -65 28 -79 30 -26 4 -97 33 -152 62 -15 8 -41 16 -57 18 -16 2 -47 13 -70 24 -22 11 -54 22 -70 26 -16 3 -34 13 -40 21 -7 7 -16 11 -21 8 -8 -5 -56 13 -110 42 -14 7 -28 11 -31 9 -4 -5 -182 63 -208 80 -8 5 -24 10 -36 11 -12 1 -40 11 -63 22 -23 12 -55 23 -71 27 -16 3 -34 13 -40 21 -7 7 -16 12 -20 9 -7 -4 -209 68 -303 108 -18 8 -50 20 -72 27 -22 7 -58 21 -80 31 -22 9 -51 21 -65 24 -14 4 -31 12 -38 18 -7 6 -24 12 -37 13 -13 1 -47 14 -75 28 -36 18 -52 22 -55 13z"/>
 </g>
<g id="layer103" fill="#e8ac2f" stroke="none">
 <path d="M7836 10692 c-2 -4 15 -14 39 -21 24 -7 51 -21 61 -32 9 -10 25 -19 35 -19 22 0 150 -67 165 -86 6 -8 18 -14 25 -14 8 0 37 -15 64 -34 28 -19 72 -46 100 -61 51 -27 172 -110 190 -129 6 -6 23 -18 39 -26 16 -8 42 -27 59 -42 16 -16 33 -28 38 -28 5 0 14 -9 21 -20 7 -11 18 -20 25 -20 6 0 28 -16 49 -35 20 -19 41 -35 45 -35 5 0 16 -11 25 -25 9 -14 22 -25 29 -25 8 0 23 -13 35 -30 12 -16 28 -30 35 -30 8 0 24 -13 37 -30 12 -16 25 -30 29 -30 14 0 393 -385 408 -413 8 -15 17 -25 19 -22 6 6 42 -25 42 -36 0 -5 23 -32 50 -60 28 -28 50 -57 50 -65 0 -7 11 -21 25 -32 14 -11 25 -24 25 -30 0 -5 7 -12 15 -16 8 -3 15 -12 15 -20 0 -7 7 -16 15 -20 8 -3 15 -10 15 -15 0 -5 14 -23 30 -41 17 -18 30 -38 30 -46 0 -8 4 -14 9 -14 13 0 210 -293 223 -333 7 -18 17 -36 25 -42 15 -11 41 -59 148 -268 41 -82 75 -157 75 -167 0 -10 7 -23 15 -30 8 -7 22 -35 30 -62 8 -28 19 -56 24 -62 15 -18 111 -305 116 -349 3 -22 10 -46 17 -54 6 -7 8 -16 5 -20 -3 -3 0 -21 8 -40 8 -19 14 -37 13 -41 -1 -4 1 -14 5 -22 3 -8 8 -22 10 -30 3 -8 5 692 4 1555 l-2 1570 -1302 3 c-716 1 -1304 -2 -1307 -6z"/>
 <path d="M10433 3568 c-7 -8 -11 -17 -8 -20 5 -5 -34 -117 -54 -155 -5 -10 -13 -29 -18 -43 -22 -55 -35 -86 -49 -113 -8 -16 -14 -34 -14 -41 0 -7 -11 -30 -25 -50 -14 -20 -25 -43 -25 -51 0 -12 -94 -214 -119 -255 -5 -8 -19 -35 -31 -60 -12 -25 -27 -49 -34 -55 -7 -5 -18 -26 -24 -45 -7 -20 -28 -59 -47 -89 -19 -29 -35 -56 -35 -60 0 -5 -13 -27 -30 -49 -16 -23 -30 -44 -30 -48 0 -12 -172 -264 -181 -264 -5 0 -9 -6 -9 -14 0 -7 -11 -24 -24 -38 -12 -14 -26 -33 -29 -42 -4 -9 -11 -16 -17 -16 -5 0 -10 -6 -10 -14 0 -8 -16 -29 -35 -47 -19 -19 -35 -39 -35 -47 0 -7 -7 -15 -15 -18 -8 -4 -15 -12 -15 -20 0 -7 -11 -21 -25 -30 -14 -9 -25 -22 -25 -29 0 -7 -27 -41 -60 -75 -33 -34 -60 -65 -60 -70 0 -4 -25 -29 -55 -55 -30 -25 -55 -51 -55 -56 0 -10 -146 -159 -156 -159 -11 0 -79 -65 -79 -75 0 -6 -13 -16 -27 -23 -15 -7 -37 -26 -48 -42 -12 -16 -36 -37 -55 -46 -19 -9 -33 -20 -32 -26 1 -5 -7 -15 -18 -21 -11 -7 -26 -20 -33 -29 -7 -10 -19 -18 -25 -18 -7 0 -18 -9 -25 -20 -7 -11 -16 -20 -21 -20 -6 0 -25 -13 -43 -30 -18 -16 -38 -30 -45 -30 -7 0 -13 -4 -13 -9 0 -9 -113 -91 -127 -91 -4 0 -32 -18 -61 -40 -73 -56 -189 -132 -242 -159 -25 -13 -63 -34 -85 -46 -88 -52 -358 -184 -366 -180 -4 3 -11 1 -14 -5 -7 -11 -97 -54 -165 -79 -19 -8 -48 -19 -65 -26 -83 -36 -109 -45 -113 -40 -3 3 -15 -1 -26 -9 -12 -7 -55 -23 -96 -36 -41 -12 -84 -26 -95 -31 -47 -18 -90 -29 -114 -29 -15 0 -36 -7 -48 -15 -12 -8 -34 -17 -50 -19 -15 -2 -40 -8 -55 -14 -15 -6 -45 -13 -65 -16 -21 -3 -38 -5 -38 -7 0 -2 -18 -5 -65 -13 -14 -2 -25 -5 -25 -6 0 -3 -32 -8 -75 -14 -14 -2 -25 -5 -25 -6 0 -1 -12 -4 -27 -6 -16 -2 -40 -6 -55 -8 -16 -2 -30 -5 -33 -6 -5 -3 -30 -7 -95 -14 -16 -2 -34 -4 -40 -6 -17 -5 -57 -9 -120 -12 -33 -2 -60 -7 -60 -13 0 -16 4264 -19 4270 -3 3 7 4 793 3 1747 -2 1382 -6 1731 -15 1719z"/>
 <path d="M1045 1217 c-3 -6 -4 -259 -3 -562 l3 -550 1449 -3 c798 -1 1454 2 1458 6 5 5 -56 32 -134 62 -79 29 -161 60 -183 70 -22 9 -58 23 -80 30 -37 12 -66 24 -165 68 -19 9 -44 17 -56 18 -21 2 -95 33 -147 61 -15 8 -40 16 -56 18 -16 2 -48 13 -72 24 -24 10 -55 23 -69 26 -14 4 -31 12 -38 18 -7 6 -24 12 -37 13 -13 1 -48 15 -77 29 -29 15 -65 28 -79 30 -26 4 -97 33 -152 62 -15 8 -41 16 -57 18 -16 2 -47 13 -70 24 -22 11 -54 22 -70 26 -16 3 -34 13 -40 21 -7 7 -16 11 -21 8 -8 -5 -56 13 -110 42 -14 7 -28 11 -31 9 -4 -5 -182 63 -208 80 -8 5 -24 10 -36 11 -12 1 -40 11 -63 22 -23 12 -55 23 -71 27 -16 3 -34 13 -40 21 -7 7 -16 12 -20 9 -7 -4 -209 68 -303 108 -18 8 -50 20 -72 27 -22 7 -58 21 -80 31 -22 9 -51 21 -65 24 -14 4 -31 12 -38 18 -7 6 -24 12 -37 13 -13 1 -47 14 -75 28 -36 18 -52 22 -55 13z"/>
 </g>

</svg>